# xmcd
#
# Track frame offsets:
#      150
#      13944
#      28891
#      42439
#      52865
#      67701
#      78830
#      88377
#      103229
#      115671
#      123341
#      132001
# 
# Disc length: 1927 seconds
#
# Revision: 3
# Processed by: cddbd v1.5.1PL0 Copyright (c) Steve Scherf et al.
#
# Submitted via: FreeRIP 1.21
#
DISCID=9807850c
DTITLE=Gilles Mee! - de wonderfluit
DYEAR=1900
DGENRE=Folk
TTITLE0=Sorry
TTITLE1=De Wonderfluit
TTITLE2=Ik ben nooit bang
TTITLE3=Auto
TTITLE4=Vrij als een vogel
TTITLE5=een heleboel Ketchup
TTITLE6=Buikpijn
TTITLE7=Over A, B en C
TTITLE8=Scheepje
TTITLE9=Mama's soep
TTITLE10=Lieve kleine baby
TTITLE11=Loop me niet omver
EXTD=
EXTT0=
EXTT1=
EXTT2=
EXTT3=
EXTT4=
EXTT5=
EXTT6=
EXTT7=
EXTT8=
EXTT9=
EXTT10=
EXTT11=
PLAYORDER=
